<svg width="34" height="34" viewBox="0 0 34 34" fill="none" xmlns="http://www.w3.org/2000/svg">
<path fill-rule="evenodd" clip-rule="evenodd" d="M17 33.0001C25.8366 33.0001 33 25.8366 33 17.0001C33 8.1635 25.8366 1.00006 17 1.00006C8.16344 1.00006 1 8.1635 1 17.0001C1 25.8366 8.16344 33.0001 17 33.0001Z" stroke="black"/>
<path d="M21 14.996H18.2755V13.3245C18.2755 12.6967 18.7202 12.5504 19.0335 12.5504C19.346 12.5504 20.9562 12.5504 20.9562 12.5504V9.79073L18.3083 9.78107C15.3689 9.78107 14.6999 11.8393 14.6999 13.1565V14.996H13V17.8397H14.6999C14.6999 21.4891 14.6999 25.8863 14.6999 25.8863H18.2755C18.2755 25.8863 18.2755 21.4458 18.2755 17.8397H20.6882L21 14.996Z" fill="black"/>
</svg>
