<svg width="34" height="34" viewBox="0 0 34 34" fill="none" xmlns="http://www.w3.org/2000/svg">
<path fill-rule="evenodd" clip-rule="evenodd" d="M16.7988 33.0001C25.6354 33.0001 32.7988 25.8366 32.7988 17.0001C32.7988 8.1635 25.6354 1.00006 16.7988 1.00006C7.96227 1.00006 0.798828 8.1635 0.798828 17.0001C0.798828 25.8366 7.96227 33.0001 16.7988 33.0001Z" stroke="black"/>
<g clip-path="url(#clip0_14_994)">
<path fill-rule="evenodd" clip-rule="evenodd" d="M12.448 17.0002C12.448 16.4806 12.5343 15.9823 12.6884 15.5151L9.99215 13.4562C9.46665 14.5231 9.17065 15.7253 9.17065 17.0002C9.17065 18.2741 9.4664 19.4755 9.99103 20.5417L12.6858 18.4788C12.5332 18.0137 12.448 17.5173 12.448 17.0002Z" fill="black"/>
<path fill-rule="evenodd" clip-rule="evenodd" d="M17.1821 12.2728C18.3109 12.2728 19.3306 12.6728 20.1317 13.3273L22.4622 11.0001C21.0421 9.76369 19.2213 9.00006 17.1821 9.00006C14.0161 9.00006 11.2951 10.8106 9.99219 13.4561L12.6883 15.5149C13.3096 13.6292 15.0804 12.2728 17.1821 12.2728Z" fill="black"/>
<path fill-rule="evenodd" clip-rule="evenodd" d="M17.1821 21.7274C15.0806 21.7274 13.3097 20.3711 12.6884 18.4853L9.99219 20.5438C11.2951 23.1897 14.0161 25.0002 17.1821 25.0002C19.1361 25.0002 21.0017 24.3063 22.4018 23.0063L19.8426 21.0278C19.1204 21.4827 18.2111 21.7274 17.1821 21.7274Z" fill="black"/>
<path fill-rule="evenodd" clip-rule="evenodd" d="M24.8293 16.9999C24.8293 16.5272 24.7564 16.0181 24.6471 15.5454H17.1821V18.6363H21.4791C21.2643 19.6902 20.6795 20.5003 19.8426 21.0276L22.4019 23.0061C23.8726 21.6411 24.8293 19.6076 24.8293 16.9999Z" fill="black"/>
</g>
<defs>
<clipPath id="clip0_14_994">
<rect width="16" height="16" fill="white" transform="translate(9 9.00006)"/>
</clipPath>
</defs>
</svg>
