<svg width="41" height="29" viewBox="0 0 41 29" fill="none" xmlns="http://www.w3.org/2000/svg">
<path fill-rule="evenodd" clip-rule="evenodd" d="M7.54309 5.76727C8.11172 5.30695 8.82929 5.07678 9.69579 5.07678C10.5623 5.07678 11.2663 5.3611 11.8079 5.92974C12.3765 6.4713 12.715 7.25657 12.8233 8.28553H20.3781C20.2968 5.27987 19.3085 3.08655 17.413 1.70557C16.3491 0.915248 15.0976 0.346726 13.6583 0L22.9416 7.79394e-08V10.2529H34.0545V7.79394e-08H41V28.5132H34.0545V16.9837H22.9416V28.5132H13.1104C14.9765 28.1342 16.5597 27.3759 17.8598 26.2383C19.8365 24.5053 20.8249 22.4338 20.8249 20.0239C20.8249 18.6429 20.5676 17.465 20.0531 16.4902C19.5387 15.4883 18.8617 14.7166 18.0223 14.175C17.2099 13.6334 16.3028 13.1867 15.3009 12.8346C14.2991 12.4555 13.2836 12.1441 12.2547 11.9004C11.2528 11.6297 10.3321 11.3589 9.4927 11.0881C8.68036 10.7902 8.01695 10.3841 7.50247 9.86959C6.98799 9.32803 6.73074 8.624 6.73074 7.75751C6.73074 6.89101 7.00152 6.2276 7.54309 5.76727ZM0 19.902H6.81198C7.00152 22.1766 8.16588 23.3138 10.305 23.3138C11.3069 23.3138 12.0922 23.0566 12.6608 22.5421C13.2295 22.0006 13.5138 21.3236 13.5138 20.5113C13.5138 19.6989 13.2565 19.0355 12.7421 18.521C12.2276 18.0065 11.5506 17.6004 10.7112 17.3025C9.89887 17.0047 8.97822 16.7339 7.94926 16.4902C6.94737 16.2194 5.94548 15.8945 4.9436 15.5154C3.94171 15.1363 3.02106 14.6895 2.18164 14.175C1.3693 13.6334 0.705884 12.8753 0.191401 11.9004C0.123062 11.7674 0.0592617 11.6312 2.34095e-08 11.4919L0 19.902Z" fill="#E02232"/>
</svg>
